:SAMPLES-PER-SECOND 30
:FRAME-RANGE 1-2009
:FULLY-SPECIFIED
:DEGREES
566
root  -63.2842 38.1688 -67.2284 -177.691 41.8016 -174.943
RightUpLeg  -10.1541 -13.2099 10.0174
RightLeg  25.4074 -15.9675 -3.03398
RightFoot  -15.9832 -0.262012 -3.79822
RightToes  4.71047e-010 1.2921e-014 -6.02303e-014
Spine  10.1788 3.71398 15.8203
Spine1  2.63887 9.21241 -16.9
HEad  12.1188 -41.4524 6.01389
LeftShoulder1  1.32283 -0.0810816 -30.841
LeftArm  4.17035 9.76563 -20.8717
LeftForeArm  6.50452 -1.77502 -17.7224
LeftHand  0.207263 1.18512 -5.98286
RightShoulder  6.55775 27.56 13.9937
RightArm  -22.6659 26.5281 3.59009
RightForeArm  40.0312 -3.65865 10.0808
RightHand  0.241249 -0.449616 5.76742
LeftUpLeg  -25.0043 -2.25977 11.6495
LeftLeg  56.0328 -1.42766 -1.79703
LeftFoot  -0.710682 0.727581 -7.76781
LeftToes  2.15783e-011 -7.56106e-012 -8.20802e-012
567
root  -62.4754 38.443 -68.0227 -177.978 42.044 -175.643
RightUpLeg  -6.80014 -9.42612 8.91904
RightLeg  22.4119 -19.4261 -2.28701
RightFoot  -16.0391 -0.231268 -2.99444
RightToes  4.71047e-010 1.2921e-014 -6.02303e-014
Spine  10.1033 4.44657 15.2861
Spine1  2.45127 9.74217 -17.7485
HEad  11.7341 -41.544 5.83751
LeftShoulder1  1.26294 0.0756425 -30.7782
LeftArm  4.04142 13.3336 -19.291
LeftForeArm  5.99923 -1.2418 -17.8434
LeftHand  0.201345 1.50622 -6.36479
RightShoulder  6.45052 27.5243 13.6436
RightArm  -23.0333 26.2188 3.16214
RightForeArm  40.6676 -4.32911 9.84952
RightHand  0.229928 -0.430915 5.47648
LeftUpLeg  -26.1893 -1.35795 10.2591
LeftLeg  46.5288 -1.99857 -1.85776
LeftFoot  -1.48326 0.645437 -7.37537
LeftToes  2.15783e-011 -7.56106e-012 -8.20802e-012
568
root  -61.7193 38.6815 -68.7936 -178.118 41.9384 -176.348
RightUpLeg  -3.66318 -6.35733 8.28964
RightLeg  18.8942 -22.4351 -1.48158
RightFoot  -15.901 -0.204641 -2.43982
RightToes  4.71047e-010 1.2921e-014 -6.02303e-014
Spine  10.0213 5.05209 14.5683
Spine1  2.43695 10.1663 -18.3633
HEad  10.861 -41.8768 5.93241
LeftShoulder1  1.1893 0.26364 -30.6392
LeftArm  4.55689 16.643 -18.0826
LeftForeArm  5.42909 -1.34261 -17.8673
LeftHand  0.206461 1.69345 -6.8921
RightShoulder  6.25851 27.3409 13.102
RightArm  -23.5921 25.7717 2.65381
RightForeArm  41.0144 -4.83473 9.59776
RightHand  0.242048 -0.194999 5.46678
LeftUpLeg  -26.5176 0.724449 8.1462
LeftLeg  34.9528 -1.60341 -0.858157
LeftFoot  -0.724274 0.78591 -8.40228
LeftToes  2.15783e-011 -7.56106e-012 -8.20802e-012
569
root  -60.9876 38.8573 -69.5833 -177.968 41.3801 -176.67
RightUpLeg  -0.506578 -4.31399 8.19736
RightLeg  14.9979 -24.845 -0.456148
RightFoot  -15.6586 -0.184684 -2.09086
RightToes  4.71047e-010 1.2921e-014 -6.02303e-014
Spine  9.55518 5.51702 14.1785
Spine1  3.01688 10.6348 -18.7866
HEad  9.98581 -42.1015 6.00814
LeftShoulder1  1.08729 0.52241 -30.3971
LeftArm  5.3531 19.5589 -17.2603
LeftForeArm  4.94387 -2.27264 -17.6876
LeftHand  0.209961 1.75279 -7.13172
RightShoulder  6.07138 27.1124 12.6031
RightArm  -24.07 25.0912 2.19318
RightForeArm  41.5401 -5.53999 9.29487
RightHand  0.249677 -0.151163 5.58475
LeftUpLeg  -26.1724 4.74275 5.06244
LeftLeg  23.0915 -1.35147 -0.309562
LeftFoot  -0.180569 0.881315 -8.99735
LeftToes  2.15783e-011 -7.56106e-012 -8.20802e-012
570
root  -60.2976 38.9534 -70.4196 -177.81 40.4075 -176.88
RightUpLeg  2.69638 -3.73143 8.09087
RightLeg  11.1073 -26.1948 0.849803
RightFoot  -15.6804 -0.14082 -0.917712
RightToes  4.71047e-010 1.2921e-014 -6.02303e-014
Spine  9.05024 5.76307 13.9122
Spine1  3.62501 10.9774 -18.9926
HEad  9.87668 -42.4968 5.60664
LeftShoulder1  1.04099 0.624753 -30.0802
LeftArm  5.77686 22.393 -16.8459
LeftForeArm  4.21331 -3.36605 -17.4174
LeftHand  0.231122 1.29707 -6.8532
RightShoulder  6.02054 26.9079 12.5704
RightArm  -23.871 24.2456 1.71107
RightForeArm  42.1595 -6.60734 9.25585
RightHand  0.287509 0.258697 5.90716
LeftUpLeg  -25.5287 10.8304 0.598005
LeftLeg  12.4096 -1.34518 -0.654346
LeftFoot  0.00418529 0.940131 -9.45067
LeftToes  2.15783e-011 -7.56106e-012 -8.20802e-012
571
root  -59.6028 38.8963 -71.3492 -177.365 38.98 -176.556
RightUpLeg  5.35825 -3.43675 8.45852
RightLeg  8.78504 -27.7932 1.60412
RightFoot  -16.3041 -0.100024 0.237462
RightToes  4.71047e-010 1.2921e-014 -6.02303e-014
Spine  8.27894 5.92144 14.1687
Spine1  4.46496 11.2521 -18.8559
HEad  10.6351 -42.9045 4.70148
LeftShoulder1  0.992869 0.748263 -29.9508
LeftArm  6.5548 24.2926 -16.6345
LeftForeArm  3.28503 -4.69129 -17.0675
LeftHand  0.23145 1.20925 -6.70144
RightShoulder  5.97595 26.4207 12.7711
RightArm  -23.1848 22.9695 1.51457
RightForeArm  42.2654 -7.1525 9.54925
RightHand  0.325679 0.831092 6.01151
LeftUpLeg  -23.9057 8.30419 1.06324
LeftLeg  4.09055 11.2038 -4.16705
LeftFoot  0.42681 1.09412 -10.62
LeftToes  2.15783e-011 -7.56106e-012 -8.20802e-012
572
root  -58.8944 38.735 -72.3278 -177.016 37.5997 -176.36
RightUpLeg  7.19844 -3.49866 8.59569
RightLeg  8.59831 -28.4784 1.72346
RightFoot  -17.6713 0.000135121 2.16616
RightToes  4.71047e-010 1.2921e-014 -6.02303e-014
Spine  7.8588 6.10325 14.278
Spine1  4.59291 11.4154 -18.6495
HEad  11.3003 -43.025 4.30791
LeftShoulder1  0.924928 0.926374 -29.7999
LeftArm  5.75659 25.3352 -16.7554
LeftForeArm  3.37574 -5.09147 -16.8269
LeftHand  0.238348 1.43264 -7.32367
RightShoulder  6.01621 25.7803 13.4142
RightArm  -22.3997 21.4033 1.51002
RightForeArm  43.205 -7.1741 9.81993
RightHand  0.376159 1.04283 6.70164
LeftUpLeg  -22.3729 5.68837 0.185487
LeftLeg  -1.12894 22.7509 -6.36303
LeftFoot  1.28956 1.09395 -9.9378
LeftToes  2.15783e-011 -7.56106e-012 -8.20802e-012
573
root  -58.1171 38.4715 -73.3983 -176.807 36.1777 -175.925
RightUpLeg  8.82098 -4.9517 8.48498
RightLeg  10.2691 -27.7507 1.43167
RightFoot  -19.4634 0.183836 4.44575
RightToes  4.71047e-010 1.2921e-014 -6.02303e-014
Spine  7.49455 6.31161 14.1518
Spine1  4.66457 11.4446 -17.8442
HEad  12.1862 -42.1331 3.14232
LeftShoulder1  0.862964 1.09636 -29.7566
LeftArm  6.68913 26.1115 -17.1692
LeftForeArm  2.23569 -6.90635 -16.2161
LeftHand  0.233738 1.52409 -7.38371
RightShoulder  6.0661 24.5326 14.6347
RightArm  -21.6374 19.85 1.27747
RightForeArm  41.6871 -7.27233 10.2258
RightHand  0.497646 1.54313 8.19791
LeftUpLeg  -21.3576 5.43976 -1.34972
LeftLeg  -0.65238 27.72 -6.61079
LeftFoot  1.21779 1.02549 -9.37243
LeftToes  2.15783e-011 -7.56106e-012 -8.20802e-012
574
root  -57.3377 38.2701 -74.4722 -177.052 35.4352 -175.97
RightUpLeg  10.4631 -12.4645 6.35262
RightLeg  12.9604 -19.4467 0.649301
RightFoot  -20.6927 0.46485 7.39248
RightToes  4.71047e-010 1.2921e-014 -6.02303e-014
Spine  7.82759 6.52231 13.1144
Spine1  4.21162 11.5072 -17.103
HEad  12.482 -40.1897 3.09127
LeftShoulder1  0.824022 1.19782 -29.6418
LeftArm  6.75731 26.8544 -17.8551
LeftForeArm  1.14239 -7.93616 -15.796
LeftHand  0.239098 1.62868 -7.78018
RightShoulder  6.1306 23.0291 16.2656
RightArm  -19.6675 18.3438 1.6896
RightForeArm  41.1528 -7.09396 10.5856
RightHand  0.491676 2.08617 7.45939
LeftUpLeg  -21.0788 6.19134 -3.06521
LeftLeg  3.26592 25.5783 -5.43844
LeftFoot  0.651006 0.0206684 -0.23431
LeftToes  2.15783e-011 -7.56106e-012 -8.20802e-012
575
root  -56.6152 38.122 -75.5265 -178.142 35.0704 -177.193
RightUpLeg  10.5327 -24.1633 2.29604
RightLeg  19.5907 -5.53818 -2.39558
RightFoot  -21.1324 0.949241 12.7157
RightToes  4.71047e-010 1.2921e-014 -6.02303e-014
Spine  8.70468 6.41127 10.8498
Spine1  3.58378 11.2325 -16.7212
HEad  12.4864 -37.1824 3.64232
LeftShoulder1  0.657508 1.68353 -30.0266
LeftArm  6.86689 26.6978 -18.4447
LeftForeArm  0.497545 -8.56384 -15.5327
LeftHand  0.256637 1.16841 -7.32886
RightShoulder  6.45939 22.3324 18.3316
RightArm  -16.8338 17.1116 2.57934
RightForeArm  44.341 -4.89527 11.0502
RightHand  0.446353 1.92694 6.91957
LeftUpLeg  -21.1715 5.06342 -4.85829
LeftLeg  6.64583 27.7699 -2.80316
LeftFoot  3.9514 -1.18617 8.6384
LeftToes  2.15783e-011 -7.56106e-012 -8.20802e-012
576
root  -56.0093 37.8581 -76.56 -179.151 33.785 -179.123
RightUpLeg  5.89956 -23.5608 -0.646082
RightLeg  32.9579 -3.18578 -2.46715
RightFoot  -19.2405 1.25073 19.8362
RightToes  4.71047e-010 1.2921e-014 -6.02303e-014
Spine  9.14755 6.04397 8.54061
Spine1  3.46574 10.6239 -16.8802
HEad  12.0561 -34.3006 4.4666
LeftShoulder1  0.731202 1.50345 -30.4669
LeftArm  4.68692 24.7483 -19.9114
LeftForeArm  1.59754 -7.66879 -15.7502
LeftHand  0.243293 1.18775 -6.99382
RightShoulder  6.74726 21.3349 20.673
RightArm  -12.4462 14.9841 3.42917
RightForeArm  46.747 -1.41429 12.0143
RightHand  0.430692 1.9214 6.67716
LeftUpLeg  -23.6092 12.5809 -10.2596
LeftLeg  14.7697 18.2738 1.20411
LeftFoot  0.270248 -0.906079 8.87569
LeftToes  2.15783e-011 -7.56106e-012 -8.20802e-012
577
root  -55.4897 37.6935 -77.5545 -179.807 32.1926 179.702
RightUpLeg  -0.121648 -22.7358 -3.48127
RightLeg  46.9176 -0.879656 -1.3309
RightFoot  -10.3693 -0.287361 25.0951
RightToes  4.71047e-010 1.2921e-014 -6.02303e-014
Spine  9.4436 5.67633 6.98052
Spine1  3.96104 10.0153 -16.3894
HEad  11.7626 -31.6597 4.25791
LeftShoulder1  0.877621 1.10963 -30.5772
LeftArm  2.05259 22.3244 -22.9742
LeftForeArm  3.64433 -6.79756 -15.8149
LeftHand  0.254957 0.971913 -6.92248
RightShoulder  6.58798 19.7673 21.9234
RightArm  -5.87504 12.7889 4.55071
RightForeArm  49.4772 2.36696 12.6621
RightHand  0.395934 1.86633 6.17787
LeftUpLeg  -24.1663 17.7283 -13.63
LeftLeg  18.587 11.7774 2.01388
LeftFoot  -2.7204 -0.712536 9.6468
LeftToes  2.15783e-011 -7.56106e-012 -8.20802e-012
